<svg width="16" height="14" viewBox="0 0 16 14" fill="none" xmlns="http://www.w3.org/2000/svg">
<path fill-rule="evenodd" clip-rule="evenodd" d="M10.5 1.375C10.5 1.54076 10.4342 1.69973 10.3169 1.81694C10.1997 1.93415 10.0408 2 9.875 2L1.125 2C0.959241 2 0.800269 1.93415 0.683059 1.81694C0.565849 1.69973 0.500001 1.54076 0.500001 1.375C0.500001 1.20924 0.565849 1.05027 0.683059 0.933056C0.800269 0.815846 0.959241 0.749999 1.125 0.749999L9.875 0.75C10.0408 0.75 10.1997 0.815847 10.3169 0.933057C10.4342 1.05027 10.5 1.20924 10.5 1.375ZM15.5 5.125C15.5 5.29076 15.4342 5.44973 15.3169 5.56694C15.1997 5.68415 15.0408 5.75 14.875 5.75L1.125 5.75C0.95924 5.75 0.800269 5.68415 0.683058 5.56694C0.565848 5.44973 0.500001 5.29076 0.500001 5.125C0.500001 4.95924 0.565848 4.80027 0.683059 4.68306C0.800269 4.56585 0.95924 4.5 1.125 4.5L14.875 4.5C15.0408 4.5 15.1997 4.56585 15.3169 4.68306C15.4342 4.80027 15.5 4.95924 15.5 5.125ZM10.5 8.875C10.5 9.04076 10.4342 9.19973 10.3169 9.31694C10.1997 9.43415 10.0408 9.5 9.875 9.5L1.125 9.5C0.95924 9.5 0.800268 9.43415 0.683058 9.31694C0.565848 9.19973 0.5 9.04076 0.5 8.875C0.5 8.70924 0.565848 8.55027 0.683058 8.43306C0.800268 8.31585 0.95924 8.25 1.125 8.25L9.875 8.25C10.0408 8.25 10.1997 8.31585 10.3169 8.43306C10.4342 8.55027 10.5 8.70924 10.5 8.875ZM15.5 12.625C15.5 12.7908 15.4342 12.9497 15.3169 13.0669C15.1997 13.1842 15.0408 13.25 14.875 13.25L1.125 13.25C0.95924 13.25 0.800268 13.1842 0.683058 13.0669C0.565848 12.9497 0.5 12.7908 0.5 12.625C0.5 12.4592 0.565848 12.3003 0.683058 12.1831C0.800268 12.0658 0.95924 12 1.125 12L14.875 12C15.0408 12 15.1997 12.0658 15.3169 12.1831C15.4342 12.3003 15.5 12.4592 15.5 12.625Z" fill="#383F45"/>
</svg>
