<svg width="20" height="20" viewBox="0 0 20 20" fill="none" xmlns="http://www.w3.org/2000/svg">
<rect x="20" y="20" width="20" height="20" rx="4" transform="rotate(-180 20 20)" fill="white"/>
<path fill-rule="evenodd" clip-rule="evenodd" d="M12.5 4.375C12.5 4.54076 12.4342 4.69973 12.3169 4.81694C12.1997 4.93415 12.0408 5 11.875 5L3.125 5C2.95924 5 2.80027 4.93415 2.68306 4.81694C2.56585 4.69973 2.5 4.54076 2.5 4.375C2.5 4.20924 2.56585 4.05027 2.68306 3.93306C2.80027 3.81585 2.95924 3.75 3.125 3.75L11.875 3.75C12.0408 3.75 12.1997 3.81585 12.3169 3.93306C12.4342 4.05027 12.5 4.20924 12.5 4.375ZM17.5 8.125C17.5 8.29076 17.4342 8.44973 17.3169 8.56694C17.1997 8.68415 17.0408 8.75 16.875 8.75L3.125 8.75C2.95924 8.75 2.80027 8.68415 2.68306 8.56694C2.56585 8.44973 2.5 8.29076 2.5 8.125C2.5 7.95924 2.56585 7.80027 2.68306 7.68306C2.80027 7.56585 2.95924 7.5 3.125 7.5L16.875 7.5C17.0408 7.5 17.1997 7.56585 17.3169 7.68306C17.4342 7.80027 17.5 7.95924 17.5 8.125ZM12.5 11.875C12.5 12.0408 12.4342 12.1997 12.3169 12.3169C12.1997 12.4342 12.0408 12.5 11.875 12.5L3.125 12.5C2.95924 12.5 2.80027 12.4342 2.68306 12.3169C2.56585 12.1997 2.5 12.0408 2.5 11.875C2.5 11.7092 2.56585 11.5503 2.68306 11.4331C2.80027 11.3158 2.95924 11.25 3.125 11.25L11.875 11.25C12.0408 11.25 12.1997 11.3158 12.3169 11.4331C12.4342 11.5503 12.5 11.7092 12.5 11.875ZM17.5 15.625C17.5 15.7908 17.4342 15.9497 17.3169 16.0669C17.1997 16.1842 17.0408 16.25 16.875 16.25L3.125 16.25C2.95924 16.25 2.80027 16.1842 2.68306 16.0669C2.56585 15.9497 2.5 15.7908 2.5 15.625C2.5 15.4592 2.56585 15.3003 2.68306 15.1831C2.80027 15.0658 2.95924 15 3.125 15L16.875 15C17.0408 15 17.1997 15.0658 17.3169 15.1831C17.4342 15.3003 17.5 15.4592 17.5 15.625Z" fill="#383F45"/>
</svg>
