<svg width="20" height="20" viewBox="0 0 20 20" fill="none" xmlns="http://www.w3.org/2000/svg">
<g id="octicon:sort-asc-16" clip-path="url(#clip0_1560_79465)">
<path id="Vector" d="M16.1588 16.7837L19.9088 13.0337C19.9526 12.99 19.9825 12.9342 19.9946 12.8735C20.0067 12.8129 20.0005 12.7499 19.9768 12.6928C19.9531 12.6356 19.913 12.5867 19.8615 12.5524C19.81 12.5181 19.7495 12.4998 19.6876 12.4999L16.8751 12.4999L16.8751 4.06243C16.8751 3.81379 16.7763 3.57533 16.6005 3.39952C16.4247 3.2237 16.1862 3.12493 15.9376 3.12493C15.6889 3.12493 15.4505 3.2237 15.2747 3.39952C15.0988 3.57533 15.0001 3.81379 15.0001 4.06243L15.0001 12.4999L12.1876 12.4999C12.1257 12.4998 12.0652 12.5181 12.0137 12.5524C11.9622 12.5867 11.922 12.6356 11.8983 12.6928C11.8746 12.7499 11.8684 12.8129 11.8805 12.8735C11.8927 12.9342 11.9225 12.99 11.9663 13.0337L15.7163 16.7837C15.7453 16.8128 15.7798 16.8359 15.8178 16.8516C15.8558 16.8674 15.8965 16.8755 15.9376 16.8755C15.9787 16.8755 16.0194 16.8674 16.0573 16.8516C16.0953 16.8359 16.1298 16.8128 16.1588 16.7837Z" fill="#383F45"/>
<path id="Vector_2" fill-rule="evenodd" clip-rule="evenodd" d="M4 14.875C4 14.7092 3.93415 14.5503 3.81694 14.4331C3.69973 14.3158 3.54076 14.25 3.375 14.25L1.625 14.25C1.45924 14.25 1.30027 14.3158 1.18306 14.4331C1.06585 14.5503 1 14.7092 1 14.875C1 15.0408 1.06585 15.1997 1.18306 15.3169C1.30027 15.4342 1.45924 15.5 1.625 15.5L3.375 15.5C3.54076 15.5 3.69973 15.4342 3.81694 15.3169C3.93415 15.1997 4 15.0408 4 14.875ZM6 11.125C6 10.9592 5.93415 10.8003 5.81694 10.6831C5.69973 10.5658 5.54076 10.5 5.375 10.5L1.625 10.5C1.45924 10.5 1.30027 10.5658 1.18306 10.6831C1.06585 10.8003 1 10.9592 1 11.125C1 11.2908 1.06585 11.4497 1.18306 11.5669C1.30027 11.6842 1.45924 11.75 1.625 11.75L5.375 11.75C5.54076 11.75 5.69973 11.6842 5.81694 11.5669C5.93415 11.4497 6 11.2908 6 11.125ZM10 7.375C10 7.20924 9.93415 7.05027 9.81694 6.93306C9.69973 6.81585 9.54076 6.75 9.375 6.75L1.625 6.75C1.45924 6.75 1.30027 6.81585 1.18306 6.93306C1.06585 7.05027 1 7.20924 1 7.375C1 7.54076 1.06585 7.69973 1.18306 7.81694C1.30027 7.93415 1.45924 8 1.625 8L9.375 8C9.54076 8 9.69973 7.93415 9.81694 7.81694C9.93415 7.69973 10 7.54076 10 7.375ZM13 3.625C13 3.45924 12.9342 3.30027 12.8169 3.18306C12.6997 3.06585 12.5408 3 12.375 3L1.625 3C1.45924 3 1.30027 3.06585 1.18306 3.18306C1.06585 3.30027 1 3.45924 1 3.625C1 3.79076 1.06585 3.94973 1.18306 4.06694C1.30027 4.18415 1.45924 4.25 1.625 4.25L12.375 4.25C12.5408 4.25 12.6997 4.18415 12.8169 4.06694C12.9342 3.94973 13 3.79076 13 3.625Z" fill="#383F45"/>
</g>
<defs>
<clipPath id="clip0_1560_79465">
<rect width="20" height="20" fill="white" transform="matrix(1 -8.74228e-08 -8.74228e-08 -1 0 20)"/>
</clipPath>
</defs>
</svg>
