<svg width="20" height="20" viewBox="0 0 20 20" fill="none" xmlns="http://www.w3.org/2000/svg">
<g id="octicon:sort-asc-16" clip-path="url(#clip0_1560_79455)">
<path id="Vector" d="M16.1588 3.21632L19.9088 6.96632C19.9526 7.01003 19.9825 7.06576 19.9946 7.12645C20.0067 7.18714 20.0005 7.25006 19.9768 7.30723C19.9531 7.36441 19.913 7.41325 19.8615 7.44758C19.81 7.48191 19.7495 7.50018 19.6876 7.50007H16.8751V15.9376C16.8751 16.1862 16.7763 16.4247 16.6005 16.6005C16.4247 16.7763 16.1862 16.8751 15.9376 16.8751C15.6889 16.8751 15.4505 16.7763 15.2747 16.6005C15.0988 16.4247 15.0001 16.1862 15.0001 15.9376V7.50007H12.1876C12.1257 7.50018 12.0652 7.48191 12.0137 7.44758C11.9622 7.41325 11.922 7.36441 11.8983 7.30723C11.8746 7.25006 11.8684 7.18714 11.8805 7.12645C11.8927 7.06576 11.9225 7.01003 11.9663 6.96632L15.7163 3.21632C15.7453 3.18722 15.7798 3.16413 15.8178 3.14837C15.8558 3.13262 15.8965 3.12451 15.9376 3.12451C15.9787 3.12451 16.0194 3.13262 16.0573 3.14837C16.0953 3.16413 16.1298 3.18722 16.1588 3.21632Z" fill="#383F45"/>
<path id="Vector_2" fill-rule="evenodd" clip-rule="evenodd" d="M4 3.625C4 3.79076 3.93415 3.94973 3.81694 4.06694C3.69973 4.18415 3.54076 4.25 3.375 4.25L1.625 4.25C1.45924 4.25 1.30027 4.18415 1.18306 4.06694C1.06585 3.94973 1 3.79076 1 3.625C1 3.45924 1.06585 3.30027 1.18306 3.18306C1.30027 3.06585 1.45924 3 1.625 3L3.375 3C3.54076 3 3.69973 3.06585 3.81694 3.18306C3.93415 3.30027 4 3.45924 4 3.625ZM6 7.375C6 7.54076 5.93415 7.69973 5.81694 7.81694C5.69973 7.93415 5.54076 8 5.375 8L1.625 8C1.45924 8 1.30027 7.93415 1.18306 7.81694C1.06585 7.69973 1 7.54076 1 7.375C1 7.20924 1.06585 7.05027 1.18306 6.93306C1.30027 6.81585 1.45924 6.75 1.625 6.75L5.375 6.75C5.54076 6.75 5.69973 6.81585 5.81694 6.93306C5.93415 7.05027 6 7.20924 6 7.375ZM10 11.125C10 11.2908 9.93415 11.4497 9.81694 11.5669C9.69973 11.6842 9.54076 11.75 9.375 11.75L1.625 11.75C1.45924 11.75 1.30027 11.6842 1.18306 11.5669C1.06585 11.4497 1 11.2908 1 11.125C1 10.9592 1.06585 10.8003 1.18306 10.6831C1.30027 10.5658 1.45924 10.5 1.625 10.5L9.375 10.5C9.54076 10.5 9.69973 10.5658 9.81694 10.6831C9.93415 10.8003 10 10.9592 10 11.125ZM13 14.875C13 15.0408 12.9342 15.1997 12.8169 15.3169C12.6997 15.4342 12.5408 15.5 12.375 15.5L1.625 15.5C1.45924 15.5 1.30027 15.4342 1.18306 15.3169C1.06585 15.1997 1 15.0408 1 14.875C1 14.7092 1.06585 14.5503 1.18306 14.4331C1.30027 14.3158 1.45924 14.25 1.625 14.25L12.375 14.25C12.5408 14.25 12.6997 14.3158 12.8169 14.4331C12.9342 14.5503 13 14.7092 13 14.875Z" fill="#383F45"/>
</g>
<defs>
<clipPath id="clip0_1560_79455">
<rect width="20" height="20" fill="white"/>
</clipPath>
</defs>
</svg>
