<svg width="23" height="22" viewBox="0 0 23 22" fill="none" xmlns="http://www.w3.org/2000/svg">
<g id="majesticons:file-line">
<path id="Vector" d="M19.8633 9V19C19.8633 19.5304 19.6526 20.0391 19.2775 20.4142C18.9024 20.7893 18.3937 21 17.8633 21H5.86328C5.33285 21 4.82414 20.7893 4.44907 20.4142C4.07399 20.0391 3.86328 19.5304 3.86328 19V5C3.86328 4.46957 4.07399 3.96086 4.44907 3.58579C4.82414 3.21071 5.33285 3 5.86328 3H13.8633M19.8633 9V8.828C19.8632 8.29761 19.6524 7.78899 19.2773 7.414L15.4493 3.586C15.0743 3.2109 14.5657 3.00011 14.0353 3H13.8633M19.8633 9H15.8633C15.3328 9 14.8241 8.78929 14.4491 8.41421C14.074 8.03914 13.8633 7.53043 13.8633 7V3" stroke="#385752" stroke-width="1.3" stroke-linecap="round" stroke-linejoin="round"/>
</g>
</svg>
