<svg width="16" height="14" viewBox="0 0 16 14" fill="none" xmlns="http://www.w3.org/2000/svg">
<path fill-rule="evenodd" clip-rule="evenodd" d="M13.5 1.375C13.5 1.54076 13.4342 1.69973 13.3169 1.81694C13.1997 1.93415 13.0408 2 12.875 2L4.125 2C3.95924 2 3.80027 1.93415 3.68306 1.81694C3.56585 1.69973 3.5 1.54076 3.5 1.375C3.5 1.20924 3.56585 1.05027 3.68306 0.933057C3.80027 0.815847 3.95924 0.749999 4.125 0.749999L12.875 0.75C13.0408 0.75 13.1997 0.815847 13.3169 0.933058C13.4342 1.05027 13.5 1.20924 13.5 1.375ZM15.5 5.125C15.5 5.29076 15.4342 5.44973 15.3169 5.56694C15.1997 5.68415 15.0408 5.75 14.875 5.75L1.125 5.75C0.95924 5.75 0.800269 5.68415 0.683058 5.56694C0.565848 5.44973 0.500001 5.29076 0.500001 5.125C0.500001 4.95924 0.565848 4.80027 0.683059 4.68306C0.800269 4.56585 0.95924 4.5 1.125 4.5L14.875 4.5C15.0408 4.5 15.1997 4.56585 15.3169 4.68306C15.4342 4.80027 15.5 4.95924 15.5 5.125ZM13.5 8.875C13.5 9.04076 13.4342 9.19973 13.3169 9.31694C13.1997 9.43415 13.0408 9.5 12.875 9.5L4.125 9.5C3.95924 9.5 3.80027 9.43415 3.68306 9.31694C3.56585 9.19973 3.5 9.04076 3.5 8.875C3.5 8.70924 3.56585 8.55027 3.68306 8.43306C3.80027 8.31585 3.95924 8.25 4.125 8.25L12.875 8.25C13.0408 8.25 13.1997 8.31585 13.3169 8.43306C13.4342 8.55027 13.5 8.70924 13.5 8.875ZM15.5 12.625C15.5 12.7908 15.4342 12.9497 15.3169 13.0669C15.1997 13.1842 15.0408 13.25 14.875 13.25L1.125 13.25C0.95924 13.25 0.800268 13.1842 0.683058 13.0669C0.565848 12.9497 0.5 12.7908 0.5 12.625C0.5 12.4592 0.565848 12.3003 0.683058 12.1831C0.800268 12.0658 0.95924 12 1.125 12L14.875 12C15.0408 12 15.1997 12.0658 15.3169 12.1831C15.4342 12.3003 15.5 12.4592 15.5 12.625Z" fill="#383F45"/>
</svg>
