<svg width="54" height="60" viewBox="0 0 54 60" fill="none" xmlns="http://www.w3.org/2000/svg">
<path id="Vector" d="M8.27531 26.8681V11.9793C8.27531 8.50487 8.27531 6.76637 8.95651 5.43933C9.55572 4.27202 10.5111 3.32367 11.6871 2.7289C13.0241 2.05273 14.7755 2.05273 18.2758 2.05273H32.2585C32.6415 2.05273 32.9766 2.05273 33.275 2.05543M52.0219 20.6638C52.0247 20.9604 52.0248 21.2934 52.0248 21.6741V47.9712C52.0248 51.4388 52.0248 53.1727 51.3442 54.4985C50.745 55.6658 49.787 56.6158 48.611 57.2106C47.2754 57.8861 45.528 57.8861 42.0345 57.8861L30.15 57.8861M52.0219 20.6638C52.0134 19.7783 51.9802 19.2176 51.8508 18.6828C51.6977 18.0498 51.4442 17.4446 51.1015 16.8895C50.715 16.2634 50.1776 15.7284 49.0966 14.6555L39.3296 4.96072C38.2494 3.88846 37.708 3.35106 37.0775 2.96754C36.5183 2.6274 35.9091 2.37611 35.2714 2.22414C34.7323 2.09568 34.1676 2.0635 33.275 2.05543M52.0219 20.6638H52.0254M52.0219 20.6638H43.2652C39.7718 20.6638 38.0225 20.6638 36.6868 19.9883C35.5108 19.3936 34.5554 18.4427 33.9562 17.2754C33.275 15.9483 33.275 14.2123 33.275 10.7379V2.05543M17.6502 36.1731L23.9001 42.3768M2.02539 57.8861V50.1314L25.4626 26.8675L33.275 34.6222L9.8378 57.8861H2.02539Z" stroke="#596066" stroke-width="3.33333" stroke-linecap="round" stroke-linejoin="round"/>
</svg>
