<svg width="22" height="28" viewBox="0 0 22 28" fill="none" xmlns="http://www.w3.org/2000/svg">
<path id="Vector" d="M21.7075 6.12594L16.7075 0.933633C16.6146 0.837228 16.5042 0.760783 16.3829 0.708665C16.2615 0.656546 16.1314 0.629776 16 0.629883H6C5.46957 0.629883 4.96086 0.848701 4.58579 1.2382C4.21071 1.6277 4 2.15597 4 2.70681V4.78373H2C1.46957 4.78373 0.960859 5.00255 0.585786 5.39205C0.210714 5.78154 0 6.30982 0 6.86065V25.553C0 26.1038 0.210714 26.6321 0.585786 27.0216C0.960859 27.4111 1.46957 27.6299 2 27.6299H16C16.5304 27.6299 17.0391 27.4111 17.4142 27.0216C17.7893 26.6321 18 26.1038 18 25.553V23.476H20C20.5304 23.476 21.0391 23.2572 21.4142 22.8677C21.7893 22.4782 22 21.9499 22 21.3991V6.86065C22.0001 6.72424 21.9743 6.58914 21.9241 6.46308C21.8739 6.33701 21.8003 6.22245 21.7075 6.12594ZM16 25.553H2V6.86065H11.5863L16 11.4442V25.553ZM20 21.3991H18V11.0145C18.0001 10.8781 17.9743 10.743 17.9241 10.6169C17.8739 10.4909 17.8003 10.3763 17.7075 10.2798L12.7075 5.08748C12.6146 4.99107 12.5042 4.91463 12.3829 4.86251C12.2615 4.81039 12.1314 4.78362 12 4.78373H6V2.70681H15.5863L20 7.29032V21.3991ZM13 17.2453C13 17.5207 12.8946 17.7848 12.7071 17.9796C12.5196 18.1743 12.2652 18.2837 12 18.2837H6C5.73478 18.2837 5.48043 18.1743 5.29289 17.9796C5.10536 17.7848 5 17.5207 5 17.2453C5 16.9699 5.10536 16.7057 5.29289 16.511C5.48043 16.3162 5.73478 16.2068 6 16.2068H12C12.2652 16.2068 12.5196 16.3162 12.7071 16.511C12.8946 16.7057 13 16.9699 13 17.2453ZM13 21.3991C13 21.6745 12.8946 21.9387 12.7071 22.1334C12.5196 22.3282 12.2652 22.4376 12 22.4376H6C5.73478 22.4376 5.48043 22.3282 5.29289 22.1334C5.10536 21.9387 5 21.6745 5 21.3991C5 21.1237 5.10536 20.8596 5.29289 20.6648C5.48043 20.4701 5.73478 20.3607 6 20.3607H12C12.2652 20.3607 12.5196 20.4701 12.7071 20.6648C12.8946 20.8596 13 21.1237 13 21.3991Z" fill="#6A9C89"/>
</svg>
