<svg width="23" height="22" viewBox="0 0 23 22" fill="none" xmlns="http://www.w3.org/2000/svg">
<g id="fluent-emoji-high-contrast:file-folder" clip-path="url(#clip0_1560_56431)">
<path id="Vector" d="M3.69922 2.0625C3.12942 2.0625 2.58295 2.28885 2.18004 2.69176C1.77713 3.09467 1.55078 3.64114 1.55078 4.21094V9.625H1.55216L1.55078 9.71094V19.1998C1.55078 19.7696 1.77713 20.3161 2.18004 20.719C2.58295 21.1219 3.12942 21.3482 3.69922 21.3482H20.0273C20.597 21.3482 21.1434 21.122 21.5463 20.7192C21.9492 20.3165 22.1756 19.7702 22.1758 19.2005V9.71094C22.1758 9.68206 22.1751 9.65342 22.1737 9.625H22.1758V6.96919C22.1758 6.39939 21.9494 5.85292 21.5465 5.45001C21.1436 5.0471 20.5971 4.82075 20.0273 4.82075H12.4738C12.2682 4.82075 12.0716 4.73963 11.9265 4.59456L10.2236 2.893C9.96042 2.6296 9.6479 2.42067 9.3039 2.27816C8.95991 2.13565 8.59119 2.06237 8.21884 2.0625H3.69922ZM20.8008 7.70619C20.5541 7.61071 20.2918 7.56199 20.0273 7.5625H3.69922C3.43472 7.56199 3.17244 7.61071 2.92578 7.70619V4.21094C2.92578 3.784 3.27228 3.4375 3.69922 3.4375H8.21884C8.60659 3.4375 8.97784 3.5915 9.25147 3.86513L10.9544 5.56737C11.3573 5.96956 11.9032 6.19575 12.4738 6.19575H20.0273C20.455 6.19575 20.8008 6.54225 20.8008 6.96919V7.70619ZM2.92578 9.71094C2.92578 9.284 3.27228 8.9375 3.69922 8.9375H20.0273C20.455 8.9375 20.8008 9.284 20.8008 9.71094V19.1998C20.8008 19.6274 20.455 19.9732 20.0273 19.9732H3.69922C3.49421 19.9732 3.29759 19.8919 3.15256 19.747C3.00753 19.6021 2.92596 19.4055 2.92578 19.2005V9.71094Z" fill="#385752"/>
</g>
<defs>
<clipPath id="clip0_1560_56431">
<rect width="22" height="22" fill="white" transform="translate(0.863281)"/>
</clipPath>
</defs>
</svg>
