<svg width="20" height="20" viewBox="0 0 20 20" fill="none" xmlns="http://www.w3.org/2000/svg">
<path d="M13.4779 13.6667H6.52214L4.80786 18H2.5L8.92857 3H11.0714L17.5 18H15.1921L13.4779 13.6667ZM12.6207 11.5L10 4.87542L7.37929 11.5H12.6207Z" fill="#596066"/>
<path d="M2 10.5H1.5V11V12.8V13.3H2H18H18.5V12.8V11V10.5H18H2Z" fill="#6A9C89" stroke="white"/>
<path d="M14.2841 4H13.2528V1.09091H14.2926C14.5852 1.09091 14.8371 1.14915 15.0483 1.26562C15.2595 1.38116 15.4219 1.54735 15.5355 1.7642C15.6501 1.98106 15.7074 2.24053 15.7074 2.54261C15.7074 2.84564 15.6501 3.10606 15.5355 3.32386C15.4219 3.54167 15.2585 3.70881 15.0455 3.82528C14.8333 3.94176 14.5795 4 14.2841 4ZM13.8679 3.47301H14.2585C14.4403 3.47301 14.5933 3.44081 14.7173 3.37642C14.8423 3.31108 14.9361 3.21023 14.9986 3.07386C15.062 2.93655 15.0938 2.75947 15.0938 2.54261C15.0938 2.32765 15.062 2.15199 14.9986 2.01562C14.9361 1.87926 14.8428 1.77888 14.7188 1.71449C14.5947 1.65009 14.4418 1.6179 14.2599 1.6179H13.8679V3.47301Z" fill="#596066"/>
</svg>
