<svg width="18" height="18" viewBox="0 0 18 18" fill="none" xmlns="http://www.w3.org/2000/svg">
<g clip-path="url(#clip0_495_127)">
<path d="M9.92246 7.17182V1.02746C9.92246 0.759864 9.88052 0.427152 9.78972 0.0881538L11.0124 0C11.1033 0.359046 11.1538 0.708481 11.1538 1.02746V7.17019C11.1538 7.7284 10.9212 8.35424 10.6031 8.81629C10.2646 9.30686 9.74462 9.74039 9.07692 9.74039C8.79358 9.74231 8.51293 9.66755 8.25218 9.52069C7.99144 9.37384 7.7561 9.15798 7.56062 8.88637C7.21969 8.41536 6.99938 7.78218 6.99938 7.17101V5.66588C6.99938 5.44976 7.06422 5.24248 7.17963 5.08966C7.29503 4.93684 7.45156 4.85098 7.61477 4.85098C7.77798 4.85098 7.93451 4.93684 8.04991 5.08966C8.16532 5.24248 8.23015 5.44976 8.23015 5.66588V7.17101C8.23015 7.28998 8.28677 7.53445 8.44862 7.75774C8.59815 7.96391 8.808 8.11059 9.07631 8.11059C9.31754 8.11059 9.52739 7.9582 9.69292 7.71781C9.77538 7.59802 9.83754 7.46845 9.87754 7.35355C9.89918 7.29622 9.91431 7.23499 9.92246 7.17182Z" fill="#596066"/>
<path d="M5 8.11303V1.02746C5.00375 0.710359 5.03028 0.395909 5.07864 0.0881538L6.32278 0.208336C6.25891 0.512772 6.23077 0.801976 6.23077 1.02746V8.11303C6.23077 9.83981 7.41415 11.3702 9 11.3702C10.5871 11.3702 11.7692 9.84063 11.7692 8.11303V2.23501C11.7692 2.01889 11.8341 1.81162 11.9495 1.65879C12.0649 1.50597 12.2214 1.42011 12.3846 1.42011C12.5478 1.42011 12.7044 1.50597 12.8198 1.65879C12.9352 1.81162 13 2.01889 13 2.23501V8.11303C13 10.8837 11.1526 13 9 13C6.848 13 5 10.8829 5 8.11303Z" fill="#596066"/>
<rect x="0.75" y="0.75" width="16.5" height="16.5" rx="1.25" stroke="#596066" stroke-width="1.5"/>
</g>
<defs>
<clipPath id="clip0_495_127">
<rect width="18" height="18" fill="white"/>
</clipPath>
</defs>
</svg>
