<svg width="20" height="20" viewBox="0 0 20 20" fill="none" xmlns="http://www.w3.org/2000/svg">
<path d="M11.5252 8.47477C10.9001 7.84987 10.0524 7.49881 9.16856 7.49881C8.28468 7.49881 7.43699 7.84987 6.8119 8.47477L3.47856 11.8081C3.1602 12.1156 2.90626 12.4834 2.73156 12.8901C2.55686 13.2968 2.46491 13.7342 2.46106 14.1768C2.45722 14.6194 2.54156 15.0583 2.70916 15.4679C2.87676 15.8776 3.12427 16.2498 3.43725 16.5628C3.75022 16.8757 4.1224 17.1232 4.53205 17.2908C4.94171 17.4584 5.38064 17.5428 5.82324 17.5389C6.26583 17.5351 6.70323 17.4431 7.10991 17.2684C7.51659 17.0937 7.88441 16.8398 8.1919 16.5214L9.11023 15.6039M8.47856 11.5214C9.10366 12.1463 9.95135 12.4974 10.8352 12.4974C11.7191 12.4974 12.5668 12.1463 13.1919 11.5214L16.5252 8.1881C17.1324 7.55943 17.4684 6.71742 17.4608 5.84343C17.4532 4.96944 17.1027 4.1334 16.4846 3.51537C15.8666 2.89735 15.0306 2.54678 14.1566 2.53919C13.2826 2.53159 12.4406 2.86758 11.8119 3.47477L10.8952 4.39144" stroke="#596066" stroke-width="1.8" stroke-linecap="round" stroke-linejoin="round"/>
</svg>
