<svg width="20" height="20" viewBox="0 0 20 20" fill="none" xmlns="http://www.w3.org/2000/svg">
<path d="M6.66406 5.83594H16.6641C17.1224 5.83594 17.4974 5.46094 17.4974 5.0026C17.4974 4.54427 17.1224 4.16927 16.6641 4.16927H6.66406C6.20573 4.16927 5.83073 4.54427 5.83073 5.0026C5.83073 5.46094 6.20573 5.83594 6.66406 5.83594ZM16.6641 14.1693H6.66406C6.20573 14.1693 5.83073 14.5443 5.83073 15.0026C5.83073 15.4609 6.20573 15.8359 6.66406 15.8359H16.6641C17.1224 15.8359 17.4974 15.4609 17.4974 15.0026C17.4974 14.5443 17.1224 14.1693 16.6641 14.1693ZM16.6641 9.16927H6.66406C6.20573 9.16927 5.83073 9.54427 5.83073 10.0026C5.83073 10.4609 6.20573 10.8359 6.66406 10.8359H16.6641C17.1224 10.8359 17.4974 10.4609 17.4974 10.0026C17.4974 9.54427 17.1224 9.16927 16.6641 9.16927ZM3.7474 13.3359H2.08073C1.8474 13.3359 1.66406 13.5193 1.66406 13.7526C1.66406 13.9859 1.8474 14.1693 2.08073 14.1693H3.33073V14.5859H2.91406C2.68073 14.5859 2.4974 14.7693 2.4974 15.0026C2.4974 15.2359 2.68073 15.4193 2.91406 15.4193H3.33073V15.8359H2.08073C1.8474 15.8359 1.66406 16.0193 1.66406 16.2526C1.66406 16.4859 1.8474 16.6693 2.08073 16.6693H3.7474C3.98073 16.6693 4.16406 16.4859 4.16406 16.2526V13.7526C4.16406 13.5193 3.98073 13.3359 3.7474 13.3359ZM2.08073 4.16927H2.4974V6.2526C2.4974 6.48594 2.68073 6.66927 2.91406 6.66927C3.1474 6.66927 3.33073 6.48594 3.33073 6.2526V3.7526C3.33073 3.51927 3.1474 3.33594 2.91406 3.33594H2.08073C1.8474 3.33594 1.66406 3.51927 1.66406 3.7526C1.66406 3.98594 1.8474 4.16927 2.08073 4.16927ZM3.7474 8.33594H2.08073C1.8474 8.33594 1.66406 8.51927 1.66406 8.7526C1.66406 8.98594 1.8474 9.16927 2.08073 9.16927H3.16406L1.76406 10.8026C1.70044 10.877 1.66504 10.9714 1.66406 11.0693V11.2526C1.66406 11.4859 1.8474 11.6693 2.08073 11.6693H3.7474C3.98073 11.6693 4.16406 11.4859 4.16406 11.2526C4.16406 11.0193 3.98073 10.8359 3.7474 10.8359H2.66406L4.06406 9.2026C4.12768 9.12822 4.16309 9.03381 4.16406 8.93594V8.7526C4.16406 8.51927 3.98073 8.33594 3.7474 8.33594Z" fill="#596066"/>
</svg>
