<svg width="20" height="20" viewBox="0 0 20 20" fill="none" xmlns="http://www.w3.org/2000/svg">
<path d="M17.4974 5.66667H5.83074C5.60973 5.66667 5.39777 5.57887 5.24149 5.42259C5.08521 5.26631 4.99741 5.05435 4.99741 4.83333C4.99741 4.61232 5.08521 4.40036 5.24149 4.24408C5.39777 4.0878 5.60973 4 5.83074 4H17.4974C17.7184 4 17.9304 4.0878 18.0867 4.24408C18.2429 4.40036 18.3307 4.61232 18.3307 4.83333C18.3307 5.05435 18.2429 5.26631 18.0867 5.42259C17.9304 5.57887 17.7184 5.66667 17.4974 5.66667ZM17.4974 10.8333H5.83074C5.60973 10.8333 5.39777 10.7455 5.24149 10.5893C5.08521 10.433 4.99741 10.221 4.99741 10C4.99741 9.77899 5.08521 9.56702 5.24149 9.41074C5.39777 9.25446 5.60973 9.16667 5.83074 9.16667H17.4974C17.7184 9.16667 17.9304 9.25446 18.0867 9.41074C18.2429 9.56702 18.3307 9.77899 18.3307 10C18.3307 10.221 18.2429 10.433 18.0867 10.5893C17.9304 10.7455 17.7184 10.8333 17.4974 10.8333ZM17.4974 16H5.83074C5.60973 16 5.39777 15.9122 5.24149 15.7559C5.08521 15.5996 4.99741 15.3877 4.99741 15.1667C4.99741 14.9457 5.08521 14.7337 5.24149 14.5774C5.39777 14.4211 5.60973 14.3333 5.83074 14.3333H17.4974C17.7184 14.3333 17.9304 14.4211 18.0867 14.5774C18.2429 14.7337 18.3307 14.9457 18.3307 15.1667C18.3307 15.3877 18.2429 15.5996 18.0867 15.7559C17.9304 15.9122 17.7184 16 17.4974 16ZM2.49741 5.66667C2.38851 5.66535 2.28093 5.6427 2.18074 5.6C2.08012 5.5571 1.98722 5.49798 1.90574 5.425C1.83276 5.34352 1.77364 5.25062 1.73074 5.15C1.68715 5.05012 1.66465 4.94231 1.66465 4.83333C1.66465 4.72435 1.68715 4.61655 1.73074 4.51667C1.77364 4.41605 1.83276 4.32315 1.90574 4.24167C2.02293 4.12604 2.17174 4.04771 2.3334 4.01656C2.49506 3.98542 2.66232 4.00285 2.81408 4.06667C2.91637 4.10633 3.00982 4.1658 3.08908 4.24167C3.16206 4.32315 3.22118 4.41605 3.26408 4.51667C3.30816 4.61642 3.33094 4.72427 3.33094 4.83333C3.33094 4.94239 3.30816 5.05025 3.26408 5.15C3.22118 5.25062 3.16206 5.34352 3.08908 5.425C3.01121 5.50223 2.91886 5.56334 2.81733 5.60481C2.7158 5.64628 2.60708 5.6673 2.49741 5.66667ZM2.49741 10.8333C2.38851 10.832 2.28093 10.8094 2.18074 10.7667C2.08012 10.7238 1.98722 10.6646 1.90574 10.5917C1.83276 10.5102 1.77364 10.4173 1.73074 10.3167C1.68715 10.2168 1.66465 10.109 1.66465 10C1.66465 9.89102 1.68715 9.78321 1.73074 9.68333C1.77041 9.58104 1.82988 9.48759 1.90574 9.40833C1.98722 9.33535 2.08012 9.27623 2.18074 9.23333C2.3325 9.16952 2.49976 9.15208 2.66142 9.18323C2.82308 9.21437 2.97189 9.2927 3.08908 9.40833C3.16494 9.48759 3.22442 9.58104 3.26408 9.68333C3.30816 9.78308 3.33094 9.89094 3.33094 10C3.33094 10.1091 3.30816 10.2169 3.26408 10.3167C3.22118 10.4173 3.16206 10.5102 3.08908 10.5917C3.0076 10.6646 2.9147 10.7238 2.81408 10.7667C2.71389 10.8094 2.60631 10.832 2.49741 10.8333ZM2.49741 16C2.38851 15.9987 2.28093 15.976 2.18074 15.9333C2.08012 15.8904 1.98722 15.8313 1.90574 15.7583C1.78914 15.6418 1.71015 15.4929 1.67896 15.331C1.64777 15.1691 1.6658 15.0016 1.73074 14.85C1.77041 14.7477 1.82988 14.6543 1.90574 14.575C1.985 14.4991 2.07845 14.4397 2.18074 14.4C2.38363 14.3167 2.61119 14.3167 2.81408 14.4C2.91637 14.4397 3.00982 14.4991 3.08908 14.575C3.16494 14.6543 3.22442 14.7477 3.26408 14.85C3.32902 15.0016 3.34705 15.1691 3.31586 15.331C3.28467 15.4929 3.20568 15.6418 3.08908 15.7583C3.0076 15.8313 2.9147 15.8904 2.81408 15.9333C2.71389 15.976 2.60631 15.9987 2.49741 16Z" fill="#596066"/>
</svg>
