<svg width="20" height="20" viewBox="0 0 20 20" fill="none" xmlns="http://www.w3.org/2000/svg">
<path d="M14.9974 10.8307H10.8307V14.9974C10.8307 15.2184 10.7429 15.4304 10.5867 15.5867C10.4304 15.7429 10.2184 15.8307 9.9974 15.8307C9.77638 15.8307 9.56442 15.7429 9.40814 15.5867C9.25186 15.4304 9.16406 15.2184 9.16406 14.9974V10.8307H4.9974C4.77638 10.8307 4.56442 10.7429 4.40814 10.5867C4.25186 10.4304 4.16406 10.2184 4.16406 9.9974C4.16406 9.77638 4.25186 9.56442 4.40814 9.40814C4.56442 9.25186 4.77638 9.16406 4.9974 9.16406H9.16406V4.9974C9.16406 4.77638 9.25186 4.56442 9.40814 4.40814C9.56442 4.25186 9.77638 4.16406 9.9974 4.16406C10.2184 4.16406 10.4304 4.25186 10.5867 4.40814C10.7429 4.56442 10.8307 4.77638 10.8307 4.9974V9.16406H14.9974C15.2184 9.16406 15.4304 9.25186 15.5867 9.40814C15.7429 9.56442 15.8307 9.77638 15.8307 9.9974C15.8307 10.2184 15.7429 10.4304 15.5867 10.5867C15.4304 10.7429 15.2184 10.8307 14.9974 10.8307Z" fill="#596066"/>
</svg>
