<svg width="20" height="20" viewBox="0 0 20 20" fill="none" xmlns="http://www.w3.org/2000/svg">
<g id="ri:font-color">
<path id="Vector" d="M2 16H18V17.8H2V16Z" fill="#596066"/>
<path id="Vector_2" d="M6.66667 3V9.34783C6.66667 10.3472 7.01786 11.3056 7.64298 12.0123C8.2681 12.7189 9.11595 13.1159 10 13.1159C10.8841 13.1159 11.7319 12.7189 12.357 12.0123C12.9821 11.3056 13.3333 10.3472 13.3333 9.34783V3H15V9.34783C15 10.8469 14.4732 12.2845 13.5355 13.3445C12.5979 14.4045 11.3261 15 10 15C8.67392 15 7.40215 14.4045 6.46447 13.3445C5.52678 12.2845 5 10.8469 5 9.34783V3H6.66667Z" fill="#596066"/>
</g>
</svg>
